<mxfile host="app.diagrams.net" agent="Mozilla/5.0 (X11; Linux x86_64; rv:140.0) Gecko/20100101 Firefox/140.0" version="28.2.8">
  <diagram name="Page-1" id="5OEhgGR0_1vueKRPMLnc">
    <mxGraphModel dx="1426" dy="764" grid="1" gridSize="10" guides="1" tooltips="1" connect="1" arrows="1" fold="1" page="1" pageScale="1" pageWidth="850" pageHeight="1100" math="0" shadow="0">
      <root>
        <mxCell id="0" />
        <mxCell id="1" parent="0" />
        <mxCell id="N1vJ2vMPCG5KvZV_xYA0-2" value="UI" style="swimlane;" parent="1" vertex="1">
          <mxGeometry x="20" y="40" width="810" height="470" as="geometry" />
        </mxCell>
        <mxCell id="N1vJ2vMPCG5KvZV_xYA0-6" value="" style="swimlane;startSize=0;" parent="N1vJ2vMPCG5KvZV_xYA0-2" vertex="1">
          <mxGeometry x="70" y="60" width="190" height="341" as="geometry" />
        </mxCell>
        <mxCell id="N1vJ2vMPCG5KvZV_xYA0-8" value="" style="rounded=0;whiteSpace=wrap;html=1;" parent="N1vJ2vMPCG5KvZV_xYA0-6" vertex="1">
          <mxGeometry y="60" width="190" height="60" as="geometry" />
        </mxCell>
        <mxCell id="N1vJ2vMPCG5KvZV_xYA0-9" value="" style="rounded=0;whiteSpace=wrap;html=1;" parent="N1vJ2vMPCG5KvZV_xYA0-6" vertex="1">
          <mxGeometry y="120" width="190" height="60" as="geometry" />
        </mxCell>
        <mxCell id="N1vJ2vMPCG5KvZV_xYA0-11" value="" style="rounded=0;whiteSpace=wrap;html=1;" parent="N1vJ2vMPCG5KvZV_xYA0-6" vertex="1">
          <mxGeometry y="180" width="190" height="120" as="geometry" />
        </mxCell>
        <mxCell id="N1vJ2vMPCG5KvZV_xYA0-12" value="" style="rounded=0;whiteSpace=wrap;html=1;" parent="N1vJ2vMPCG5KvZV_xYA0-6" vertex="1">
          <mxGeometry width="190" height="60" as="geometry" />
        </mxCell>
        <mxCell id="N1vJ2vMPCG5KvZV_xYA0-13" value="Messages search&amp;nbsp; &amp;nbsp; &amp;nbsp; &amp;nbsp; &amp;nbsp; &amp;nbsp;" style="rounded=1;whiteSpace=wrap;html=1;" parent="N1vJ2vMPCG5KvZV_xYA0-6" vertex="1">
          <mxGeometry x="15" y="10" width="155" height="40" as="geometry" />
        </mxCell>
        <mxCell id="N1vJ2vMPCG5KvZV_xYA0-14" value="" style="html=1;verticalLabelPosition=bottom;align=center;labelBackgroundColor=#ffffff;verticalAlign=top;strokeWidth=2;strokeColor=#0080F0;shadow=0;dashed=0;shape=mxgraph.ios7.icons.looking_glass;" parent="N1vJ2vMPCG5KvZV_xYA0-6" vertex="1">
          <mxGeometry x="130" y="15" width="30" height="30" as="geometry" />
        </mxCell>
        <mxCell id="N1vJ2vMPCG5KvZV_xYA0-16" value="" style="ellipse;whiteSpace=wrap;html=1;aspect=fixed;" parent="N1vJ2vMPCG5KvZV_xYA0-6" vertex="1">
          <mxGeometry x="5" y="125" width="50" height="50" as="geometry" />
        </mxCell>
        <mxCell id="N1vJ2vMPCG5KvZV_xYA0-17" value="" style="ellipse;whiteSpace=wrap;html=1;aspect=fixed;" parent="N1vJ2vMPCG5KvZV_xYA0-6" vertex="1">
          <mxGeometry x="5" y="65" width="50" height="50" as="geometry" />
        </mxCell>
        <mxCell id="N1vJ2vMPCG5KvZV_xYA0-20" value="" style="image;sketch=0;aspect=fixed;html=1;points=[];align=center;fontSize=12;image=img/lib/mscae/HDInsight.svg;" parent="N1vJ2vMPCG5KvZV_xYA0-6" vertex="1">
          <mxGeometry x="12.81" y="73.5" width="34.38" height="33" as="geometry" />
        </mxCell>
        <mxCell id="N1vJ2vMPCG5KvZV_xYA0-21" value="" style="shape=mxgraph.signs.animals.duck;html=1;pointerEvents=1;fillColor=#000000;strokeColor=none;verticalLabelPosition=bottom;verticalAlign=top;align=center;" parent="N1vJ2vMPCG5KvZV_xYA0-6" vertex="1">
          <mxGeometry x="7.190000000000001" y="130" width="40" height="40" as="geometry" />
        </mxCell>
        <mxCell id="N1vJ2vMPCG5KvZV_xYA0-33" value="David Krall" style="text;html=1;whiteSpace=wrap;strokeColor=#6c8ebf;fillColor=#dae8fc;align=center;verticalAlign=middle;rounded=0;" parent="N1vJ2vMPCG5KvZV_xYA0-6" vertex="1">
          <mxGeometry x="60" y="65" width="70" height="15" as="geometry" />
        </mxCell>
        <mxCell id="N1vJ2vMPCG5KvZV_xYA0-34" value="Luai Okasha" style="text;html=1;whiteSpace=wrap;strokeColor=#6c8ebf;fillColor=#dae8fc;align=center;verticalAlign=middle;rounded=0;" parent="N1vJ2vMPCG5KvZV_xYA0-6" vertex="1">
          <mxGeometry x="60" y="125" width="70" height="15" as="geometry" />
        </mxCell>
        <mxCell id="N1vJ2vMPCG5KvZV_xYA0-36" value="" style="shape=image;html=1;verticalAlign=top;verticalLabelPosition=bottom;labelBackgroundColor=#ffffff;imageAspect=0;aspect=fixed;image=https://icons.diagrams.net/icon-cache1/Material_Communication-2640/call-received-990.svg" parent="N1vJ2vMPCG5KvZV_xYA0-6" vertex="1">
          <mxGeometry x="61.5" y="155" width="16" height="16" as="geometry" />
        </mxCell>
        <mxCell id="N1vJ2vMPCG5KvZV_xYA0-37" value="" style="shape=image;html=1;verticalAlign=top;verticalLabelPosition=bottom;labelBackgroundColor=#ffffff;imageAspect=0;aspect=fixed;image=https://icons.diagrams.net/icon-cache1/Material_Communication-2640/call-received-990.svg;rotation=-180;" parent="N1vJ2vMPCG5KvZV_xYA0-6" vertex="1">
          <mxGeometry x="61.5" y="90.5" width="16" height="16" as="geometry" />
        </mxCell>
        <mxCell id="N1vJ2vMPCG5KvZV_xYA0-38" value="Good&amp;nbsp; Bye!" style="text;html=1;whiteSpace=wrap;strokeColor=none;fillColor=none;align=center;verticalAlign=middle;rounded=0;" parent="N1vJ2vMPCG5KvZV_xYA0-6" vertex="1">
          <mxGeometry x="90" y="83.5" width="70" height="30" as="geometry" />
        </mxCell>
        <mxCell id="N1vJ2vMPCG5KvZV_xYA0-39" value="Good&amp;nbsp; Bye!" style="text;html=1;whiteSpace=wrap;strokeColor=none;fillColor=none;align=center;verticalAlign=middle;rounded=0;" parent="N1vJ2vMPCG5KvZV_xYA0-6" vertex="1">
          <mxGeometry x="90" y="145" width="70" height="30" as="geometry" />
        </mxCell>
        <mxCell id="N1vJ2vMPCG5KvZV_xYA0-7" value="" style="swimlane;startSize=0;" parent="N1vJ2vMPCG5KvZV_xYA0-2" vertex="1">
          <mxGeometry x="340" y="60" width="190" height="340" as="geometry" />
        </mxCell>
        <mxCell id="emmU5hHBlHJb8_t00VrH-2" value="" style="shape=or;whiteSpace=wrap;html=1;fillColor=#d5e8d4;strokeColor=#82b366;" parent="N1vJ2vMPCG5KvZV_xYA0-7" vertex="1">
          <mxGeometry y="253" width="100" height="40" as="geometry" />
        </mxCell>
        <mxCell id="emmU5hHBlHJb8_t00VrH-3" value="" style="shape=or;whiteSpace=wrap;html=1;rotation=-180;fillColor=#ffe6cc;strokeColor=#d79b00;" parent="N1vJ2vMPCG5KvZV_xYA0-7" vertex="1">
          <mxGeometry x="110" y="70" width="80" height="30" as="geometry" />
        </mxCell>
        <mxCell id="emmU5hHBlHJb8_t00VrH-4" value="" style="shape=or;whiteSpace=wrap;html=1;rotation=-180;direction=west;fillColor=#d5e8d4;strokeColor=#82b366;" parent="N1vJ2vMPCG5KvZV_xYA0-7" vertex="1">
          <mxGeometry y="190" width="80" height="30" as="geometry" />
        </mxCell>
        <mxCell id="emmU5hHBlHJb8_t00VrH-5" value="" style="shape=or;whiteSpace=wrap;html=1;rotation=-180;direction=west;fillColor=#d5e8d4;strokeColor=#82b366;" parent="N1vJ2vMPCG5KvZV_xYA0-7" vertex="1">
          <mxGeometry y="110" width="80" height="40" as="geometry" />
        </mxCell>
        <mxCell id="emmU5hHBlHJb8_t00VrH-6" value="" style="shape=or;whiteSpace=wrap;html=1;rotation=-180;direction=east;fillColor=#ffe6cc;strokeColor=#d79b00;" parent="N1vJ2vMPCG5KvZV_xYA0-7" vertex="1">
          <mxGeometry x="110" y="220" width="80" height="40" as="geometry" />
        </mxCell>
        <mxCell id="emmU5hHBlHJb8_t00VrH-8" value="&lt;div&gt;Good Bye!&lt;/div&gt;" style="text;html=1;whiteSpace=wrap;strokeColor=none;fillColor=none;align=center;verticalAlign=middle;rounded=0;" parent="N1vJ2vMPCG5KvZV_xYA0-7" vertex="1">
          <mxGeometry x="10" y="259" width="60" height="30" as="geometry" />
        </mxCell>
        <mxCell id="emmU5hHBlHJb8_t00VrH-9" value="&lt;div&gt;Good Bye!&lt;/div&gt;" style="text;html=1;whiteSpace=wrap;strokeColor=none;fillColor=none;align=center;verticalAlign=middle;rounded=0;" parent="N1vJ2vMPCG5KvZV_xYA0-7" vertex="1">
          <mxGeometry x="120" y="225" width="60" height="30" as="geometry" />
        </mxCell>
        <mxCell id="emmU5hHBlHJb8_t00VrH-10" value="&lt;div&gt;Hi!&lt;/div&gt;" style="text;html=1;whiteSpace=wrap;strokeColor=none;fillColor=none;align=center;verticalAlign=middle;rounded=0;" parent="N1vJ2vMPCG5KvZV_xYA0-7" vertex="1">
          <mxGeometry x="130" y="70" width="60" height="30" as="geometry" />
        </mxCell>
        <mxCell id="emmU5hHBlHJb8_t00VrH-11" value="Hello!" style="text;html=1;whiteSpace=wrap;strokeColor=none;fillColor=none;align=center;verticalAlign=middle;rounded=0;" parent="N1vJ2vMPCG5KvZV_xYA0-7" vertex="1">
          <mxGeometry y="115" width="60" height="30" as="geometry" />
        </mxCell>
        <mxCell id="emmU5hHBlHJb8_t00VrH-12" value="bye bye!" style="text;html=1;whiteSpace=wrap;strokeColor=none;fillColor=none;align=center;verticalAlign=middle;rounded=0;" parent="N1vJ2vMPCG5KvZV_xYA0-7" vertex="1">
          <mxGeometry y="190" width="60" height="30" as="geometry" />
        </mxCell>
        <mxCell id="N1vJ2vMPCG5KvZV_xYA0-24" value="" style="rounded=0;whiteSpace=wrap;html=1;" parent="N1vJ2vMPCG5KvZV_xYA0-7" vertex="1">
          <mxGeometry y="300" width="40" height="40" as="geometry" />
        </mxCell>
        <mxCell id="N1vJ2vMPCG5KvZV_xYA0-26" value="Type a messege..." style="rounded=1;whiteSpace=wrap;html=1;" parent="N1vJ2vMPCG5KvZV_xYA0-7" vertex="1">
          <mxGeometry x="40" y="300" width="110" height="40" as="geometry" />
        </mxCell>
        <mxCell id="N1vJ2vMPCG5KvZV_xYA0-25" value="" style="rounded=0;whiteSpace=wrap;html=1;" parent="N1vJ2vMPCG5KvZV_xYA0-7" vertex="1">
          <mxGeometry x="150" y="300" width="40" height="40" as="geometry" />
        </mxCell>
        <mxCell id="N1vJ2vMPCG5KvZV_xYA0-23" value="" style="image;sketch=0;aspect=fixed;html=1;points=[];align=center;fontSize=12;image=img/lib/mscae/Azure_Home.svg;" parent="N1vJ2vMPCG5KvZV_xYA0-7" vertex="1">
          <mxGeometry x="4.3799999999999955" y="307.5" width="31.25" height="25" as="geometry" />
        </mxCell>
        <mxCell id="N1vJ2vMPCG5KvZV_xYA0-15" value="" style="html=1;verticalLabelPosition=bottom;align=center;labelBackgroundColor=#ffffff;verticalAlign=top;strokeWidth=2;strokeColor=#0080F0;shadow=0;dashed=0;shape=mxgraph.ios7.icons.microphone;" parent="N1vJ2vMPCG5KvZV_xYA0-7" vertex="1">
          <mxGeometry x="160" y="307.5" width="20" height="25" as="geometry" />
        </mxCell>
        <mxCell id="emmU5hHBlHJb8_t00VrH-7" value="&lt;div align=&quot;left&quot;&gt;&lt;div&gt;Messages:&lt;/div&gt;&lt;div&gt;x) Encrypte messages&lt;/div&gt;&lt;div&gt;x) SENT messages to service&lt;/div&gt;&lt;div&gt;x) DELETE messages&lt;/div&gt;&lt;div&gt;x) Text, Pictures&lt;/div&gt;&lt;div&gt;&lt;br&gt;&lt;/div&gt;&lt;div&gt;Chat Overview:&lt;/div&gt;&lt;div&gt;x) DELETE Chat&lt;/div&gt;&lt;div&gt;x) open Chat&lt;/div&gt;&lt;div&gt;x) EDIT Chat Name&lt;/div&gt;&lt;div&gt;x) ADD new Chat&lt;/div&gt;&lt;div&gt;&lt;br&gt;&lt;/div&gt;&lt;/div&gt;" style="text;html=1;whiteSpace=wrap;strokeColor=none;fillColor=none;align=center;verticalAlign=middle;rounded=0;" parent="N1vJ2vMPCG5KvZV_xYA0-2" vertex="1">
          <mxGeometry x="620" y="80" width="160" height="315" as="geometry" />
        </mxCell>
        <mxCell id="N1vJ2vMPCG5KvZV_xYA0-3" value="Service" style="swimlane;" parent="1" vertex="1">
          <mxGeometry x="20" y="560" width="810" height="420" as="geometry" />
        </mxCell>
        <mxCell id="N1vJ2vMPCG5KvZV_xYA0-28" value="DB Manager" style="rounded=0;whiteSpace=wrap;html=1;" parent="N1vJ2vMPCG5KvZV_xYA0-3" vertex="1">
          <mxGeometry x="260" y="230" width="120" height="60" as="geometry" />
        </mxCell>
        <mxCell id="N1vJ2vMPCG5KvZV_xYA0-4" value="Remote Persistence" style="swimlane;" parent="1" vertex="1">
          <mxGeometry x="20" y="1040" width="340" height="470" as="geometry" />
        </mxCell>
        <mxCell id="N1vJ2vMPCG5KvZV_xYA0-1" value="Remote DB" style="shape=datastore;whiteSpace=wrap;html=1;" parent="N1vJ2vMPCG5KvZV_xYA0-4" vertex="1">
          <mxGeometry x="100" y="120" width="70" height="90" as="geometry" />
        </mxCell>
        <mxCell id="N1vJ2vMPCG5KvZV_xYA0-30" value="" style="endArrow=classic;startArrow=classic;html=1;rounded=0;exitX=0.5;exitY=0;exitDx=0;exitDy=0;entryX=0.5;entryY=1;entryDx=0;entryDy=0;" parent="1" source="N1vJ2vMPCG5KvZV_xYA0-1" target="N1vJ2vMPCG5KvZV_xYA0-28" edge="1">
          <mxGeometry width="50" height="50" relative="1" as="geometry">
            <mxPoint x="660" y="910" as="sourcePoint" />
            <mxPoint x="710" y="860" as="targetPoint" />
          </mxGeometry>
        </mxCell>
        <mxCell id="N1vJ2vMPCG5KvZV_xYA0-31" value="Local Persistence" style="swimlane;" parent="1" vertex="1">
          <mxGeometry x="400" y="1040" width="340" height="470" as="geometry" />
        </mxCell>
        <mxCell id="N1vJ2vMPCG5KvZV_xYA0-32" value="Local DB" style="shape=datastore;whiteSpace=wrap;html=1;" parent="N1vJ2vMPCG5KvZV_xYA0-31" vertex="1">
          <mxGeometry x="100" y="120" width="70" height="90" as="geometry" />
        </mxCell>
      </root>
    </mxGraphModel>
  </diagram>
</mxfile>
